_________________________  Visit us at _________________________
  
http://p2pdl.com  ____________________________  http://p2pdl.com

 
http://www.shotpix.com/images/65857878762263102137.jpg

Battlestar Galactica Blood And Chrome 2012 BRRip 720p x264 AAC - PRiSTiNE [P2PDL]
				
Genre: Sci-Fi
The adventures of young William Adama in the First Cylon War.
Director: David Eick, Michael Taylor
Stars: Luke Pasqualino, Ben Cotton, Jill Teed
Rated: PG 13

Info:  
http://www.imdb.com/title/tt1704292/
 
http://www.rottentomatoes.com/m/battlestar_galactica_blood_and_chrome_unrated_2012/


General
Complete name                  : Battlestar Galactica Blood And Chrome 2012 BRRip 720p x264 AAC - PRiSTiNE [P2PDL].mp4
Format                         : MPEG-4
Format profile                 : Base Media / Version 2
Codec ID                       : mp42
File size                      : 525 MiB
Duration                       : 1h 33mn
Overall bit rate mode          : Variable
Overall bit rate               : 785 Kbps

Source                         : 720p Bluray Geckos (Thanks)

Video
Format/Info                    : Advanced Video Codec
Width                          : 1 278 pixels
Height                         : 720 pixels
Display aspect ratio           : 16:9
Frame rate mode                : Variable
Frame rate                     : 23.976 fps
Color space                    : YUV
Chroma subsampling             : 4:2:0
Bit depth                      : 8 bits
Scan type                      : Progressive
Bits/(Pixel*Frame)             : 0.032
Stream size                    : 468 MiB (89%)
Writing library                : x264 core 129

Audio
Format                         : AAC
Duration                       : 1h 33mn
Bit rate mode                  : Variable
Bit rate                       : 79.9 Kbps
Channel(s)                     : 2 channels
Channel positions              : Front: L R
Sampling rate                  : 48.0 KHz
Stream size                    : 53.5 MiB (10%)
Language                       : English


Subtitle                       : Yes ( English)


Screens:
 
http://www.shotpix.com/images/54108715995380647335.jpg 
http://www.shotpix.com/images/22341541237731607984.jpg 
http://www.shotpix.com/images/87021870815625665445.jpg 
http://www.shotpix.com/images/99994466501428344329.jpg 
http://www.shotpix.com/images/09959696628097489416.jpg

Thumbs:
 
http://www.shotpix.com/images/00369342410489062448.jpg

----------------------------------------------------------------------------------------------------


Recommend to you to use latest version of VLC player. Install K-Lite Codec Pack or shark007 codecs
in case of any kind of problem in playback (For non-VLC Media Player users). Alternatively, install
Core AVC codecs, the fastest decoder that there is coupled with Community Center Codec Pack and play
on Windows Media Player Classic. Check sample to be sure.
Enjoy!

Greets to: VYTO, a2zRG, MusiK_KinG, Neon, Kuroyukihime, TorDigger, Ash968, StyLishSaLH, Masta and staff members at
ExtraTorrent, TPB, H33T, KAT, 1337x, PublicHD, Ahashare, BTScene, SilverTorrent, LimeTorrents, TorrentMafia,
P2PDL, and all others.

Encoder Notes: Looking For Early Access To Anything You Can Provide DVDScr, R5, DVDR, BluRay, Direct
Audio, Early Music Releases, Seedboxes, Dedicated Servers anything u can provide, Advance / Promo CDs/
DVDs. If You Got anything to offer contact me at "prg@hush.com".